<?xml version="1.0" standalone="yes"?>
<svg xmlns="http://www.w3.org/2000/svg" width="500" height="500">
<path style="fill:#ffffff; stroke:none;" d="M0 0L0 500L500 500L500 0L0 0z"/>
<path style="fill:#585858; stroke:none;" d="M12 170L11 172L12 170z"/>
<path style="fill:#010101; stroke:none;" d="M13.3179 171.028C10.263 173.066 11.0014 177.85 11 181L11 210L11 289C11 300.185 8.35821 315.164 11.3179 325.941C12.9016 331.708 31.2744 331.926 35.5664 328.972C38.8016 326.745 37.9987 321.373 38 318L38 290L38 210C38 199.298 40.7171 184.34 37.5664 174.109C35.7728 168.284 17.7181 168.092 13.3179 171.028z"/>
<path style="fill:#585858; stroke:none;" d="M35 170L36 171L35 170z"/>
<path style="fill:#9a9a9a; stroke:none;" d="M36 170L37 171L36 170M79.6667 170.333L80.3333 170.667L79.6667 170.333z"/>
<path style="fill:#585858; stroke:none;" d="M81 170L81 171L85 171L81 170z"/>
<path style="fill:#010101; stroke:none;" d="M85 170.425C54.7595 174.542 58 200.693 58 225C58 232.216 55.3321 246.151 61.2785 251.49C69.2207 258.621 86.9188 260.973 97 264.333C100.739 265.58 106.68 266.446 109.397 269.51C113.19 273.788 112.05 291.649 110.566 296.996C108.317 305.106 94.0198 306.711 88.2284 301.566C81.6691 295.739 89.3304 282.464 82.6821 278.028C80.1177 276.317 75.917 277 73 277C69.306 277 62.4786 275.728 59.6034 278.603C57.1775 281.029 58.0002 285.899 58 289C57.9994 298.831 57.3652 310.409 62.9691 318.996C72.8977 334.209 102.486 331.58 118 328.675C142.97 324 138 291.661 138 273C138 266.312 140.263 254.486 134.721 249.51C126.779 242.379 109.081 240.027 99 236.667C95.2608 235.42 89.3199 234.554 86.6034 231.49C82.7301 227.121 83.9153 208.477 85.4336 203.004C87.6102 195.158 100.814 193.514 106.891 197.742C114.64 203.134 106.36 218.973 113.318 222.397C115.745 223.591 119.38 223 122 223C125.88 223 133.386 224.407 136.397 221.397C138.981 218.812 138 213.306 138 210C138 200.133 138.499 188.372 132.362 180.015C123.052 167.338 98.9545 168.526 85 170.425z"/>
<path style="fill:#585858; stroke:none;" d="M111 170L111 171L115 171L111 170z"/>
<path style="fill:#9a9a9a; stroke:none;" d="M115.667 170.333L116.333 170.667L115.667 170.333M159 170L160 171L159 170z"/>
<path style="fill:#585858; stroke:none;" d="M160 170L161 171L160 170z"/>
<path style="fill:#010101; stroke:none;" d="M185 263L211 263L211 308C211 313.406 209.414 321.837 211.603 326.852C213.768 331.809 234.078 332.019 236.972 327.682C238.954 324.713 238 319.389 238 316L238 288L238 212C238 200.158 239.789 186.72 237.852 175.044C236.673 167.938 214.225 167.144 211.603 173.148C209.414 178.163 211 186.594 211 192L211 237L185 237L185 192C185 186.594 186.586 178.163 184.397 173.148C181.775 167.144 159.327 167.938 158.148 175.044C156.211 186.72 158 200.158 158 212L158 288L158 316C158 319.389 157.046 324.713 159.028 327.682C161.922 332.019 182.232 331.809 184.397 326.852C186.586 321.837 185 313.406 185 308L185 263z"/>
<path style="fill:#585858; stroke:none;" d="M183 170L184 171L183 170M212 170L213 171L212 170M235 170L236 171L235 170z"/>
<path style="fill:#9a9a9a; stroke:none;" d="M236 170L237 171L236 170M290 170L291 171L290 170z"/>
<path style="fill:#585858; stroke:none;" d="M291 170L292 171L291 170z"/>
<path style="fill:#010101; stroke:none;" d="M288 298L325 298C325.555 304.973 326.447 323.448 331.589 328.397C334.611 331.306 354.517 331.922 356.307 327.566C359.266 320.369 351.624 301.581 349.881 294C343.082 264.424 337.339 234.602 330.65 205C329.023 197.797 327.8 172.784 319.941 170.434C314.733 168.876 294.783 167.698 290.857 171.742C285.339 177.427 285.074 194.37 283.35 202C277.338 228.604 272.229 255.419 266.119 282C263.521 293.3 261.201 304.66 258.789 316C258.112 319.187 255.344 325.51 257.774 328.397C260.015 331.06 265.936 330 269 330C272.469 330 277.645 330.911 280.721 328.972C286.677 325.218 287.715 304.626 288 298z"/>
<path style="fill:#585858; stroke:none;" d="M321 170L322 171L321 170z"/>
<path style="fill:#9a9a9a; stroke:none;" d="M322 170L323 171L322 170z"/>
<path style="fill:#585858; stroke:none;" d="M377 170L378 171L377 170z"/>
<path style="fill:#010101; stroke:none;" d="M401 236L404 236C405.169 263.143 415.528 292.459 421.424 319C423.034 326.245 432.562 337.071 440.062 327.566C443.843 322.776 444.131 312.855 445.424 307C448.957 291.007 452.676 275.038 455.997 259C457.479 251.841 457.84 241.438 463 236L463 300C463 307.378 460.555 320.01 463.603 326.772C465.843 331.739 482.677 331.493 486.682 328.821C489.73 326.787 488.999 322.152 489 319L489 292L489 211C489 199.89 491.697 184.792 488.682 174.109C486.638 166.868 457.891 167.78 454.854 174.109C449.896 184.444 449.048 198.808 446.576 210C442.047 230.502 434.708 252.083 433 273C422.398 251.879 420.524 222.088 415.424 199C413.935 192.256 413.439 176.644 408.272 171.858C405.14 168.957 398.897 170 395 170C390.548 170 381.283 168.265 377.603 171.179C375.261 173.034 376.001 177.393 376 180L376 204L376 292C376 301.176 372.455 319.393 376.603 327.566C378.72 331.736 398.28 331.736 400.397 327.566C402.285 323.846 401 317.085 401 313L401 279L401 236z"/>
<path style="fill:#585858; stroke:none;" d="M406.667 170.333L407.333 170.667L406.667 170.333z"/>
<path style="fill:#9a9a9a; stroke:none;" d="M456 170L457 171L456 170z"/>
<path style="fill:#585858; stroke:none;" d="M457 170L458 171L457 170M486 170L487 171L486 170z"/>
<path style="fill:#9a9a9a; stroke:none;" d="M487 170L488 171L487 170M37 171L38 172L37 171M75 171L76 172L75 171z"/>
<path style="fill:#585858; stroke:none;" d="M76.6667 171.333L77.3333 171.667L76.6667 171.333M119 171L120 172L119 171z"/>
<path style="fill:#9a9a9a; stroke:none;" d="M120 171L121 172L120 171z"/>
<path style="fill:#585858; stroke:none;" d="M158 171L159 172L158 171M184 171L185 172L184 171M211 171L212 172L211 171M237 171L238 172L237 171z"/>
<path style="fill:#9a9a9a; stroke:none;" d="M323 171L324 172L323 171M455 171L456 172L455 171M488 171L489 172L488 171z"/>
<path style="fill:#585858; stroke:none;" d="M37 172L38 173L37 172z"/>
<path style="fill:#ffe05e; stroke:none;" d="M72 172L73 173L72 172z"/>
<path style="fill:#585858; stroke:none;" d="M73 172L74 173L73 172M122 172L123 173L122 172z"/>
<path style="fill:#9a9a9a; stroke:none;" d="M123 172L124 173L123 172M289 172L290 173L289 172M375 172L376 173L375 172z"/>
<path style="fill:#585858; stroke:none;" d="M409 172L410 173L409 172z"/>
<path style="fill:#9a9a9a; stroke:none;" d="M10 173L10 327L11 327L11 219C11 206.009 15.0067 184.932 10 173M70 173L71 174L70 173z"/>
<path style="fill:#585858; stroke:none;" d="M71 173L72 174L71 173M124 173L125 174L124 173z"/>
<path style="fill:#9a9a9a; stroke:none;" d="M125 173L126 174L125 173z"/>
<path style="fill:#ffe05e; stroke:none;" d="M185 173L185 214C185 220.021 183.599 228.061 185.318 233.852C186.719 238.57 207.12 238.998 209.972 235.397C212.779 231.852 211 222.32 211 218L211 173L210 173L210 236L186 236L186 193L185 173z"/>
<path style="fill:#585858; stroke:none;" d="M289 173L290 174L289 173M375 173L375 327L376 327L376 219C376 206.009 380.007 184.932 375 173z"/>
<path style="fill:#9a9a9a; stroke:none;" d="M454 173L455 174L454 173z"/>
<path style="fill:#585858; stroke:none;" d="M69 174L70 175L69 174M126 174L127 175L126 174z"/>
<path style="fill:#9a9a9a; stroke:none;" d="M324 174L325 175L324 174M410.333 174.667L410.667 175.333L410.333 174.667z"/>
<path style="fill:#585858; stroke:none;" d="M454 174L455 175L454 174z"/>
<path style="fill:#9a9a9a; stroke:none;" d="M489 174L489 326L490 326L490 220C490 207.009 494.007 185.932 489 174M67 175L68 176L67 175M128 175L129 176L128 175z"/>
<path style="fill:#ffe05e; stroke:none;" d="M288 175L289 176L288 175z"/>
<path style="fill:#585858; stroke:none;" d="M324.333 175.667L324.667 176.333L324.333 175.667z"/>
<path style="fill:#9a9a9a; stroke:none;" d="M66 176L67 177L66 176M129 176L130 177L129 176M288 176L289 177L288 176z"/>
<path style="fill:#585858; stroke:none;" d="M410 176L411 177L410 176z"/>
<path style="fill:#ffe05e; stroke:none;" d="M453 176L454 177L453 176z"/>
<path style="fill:#585858; stroke:none;" d="M65 177L66 178L65 177M130 177L131 178L130 177M288.333 177.667L288.667 178.333L288.333 177.667z"/>
<path style="fill:#9a9a9a; stroke:none;" d="M453 177L454 178L453 177M64 178L65 179L64 178M131 178L132 179L131 178z"/>
<path style="fill:#ffe05e; stroke:none;" d="M325 178L326 179L325 178z"/>
<path style="fill:#585858; stroke:none;" d="M453 178L454 179L453 178z"/>
<path style="fill:#9a9a9a; stroke:none;" d="M63 179L64 180L63 179M132 179L133 180L132 179M325 179L326 180L325 179M411 179L412 180L411 179M287.333 180.667L287.667 181.333L287.333 180.667z"/>
<path style="fill:#585858; stroke:none;" d="M325 180L326 181L325 180M411.333 180.667L411.667 181.333L411.333 180.667M62 181L63 182L62 181M133 181L134 182L133 181z"/>
<path style="fill:#9a9a9a; stroke:none;" d="M452 181L453 182L452 181M61 182L62 183L61 182M134 182L135 183L134 182z"/>
<path style="fill:#585858; stroke:none;" d="M287 182L288 183L287 182M452.333 182.667L452.667 183.333L452.333 182.667M61 183L62 184L61 183M134 183L135 184L134 183z"/>
<path style="fill:#9a9a9a; stroke:none;" d="M326.333 183.667L326.667 184.333L326.333 183.667M412.333 183.667L412.667 184.333L412.333 183.667M60 184L61 185L60 184M135 184L136 185L135 184z"/>
<path style="fill:#585858; stroke:none;" d="M60 185L61 186L60 185M135 185L136 186L135 185z"/>
<path style="fill:#9a9a9a; stroke:none;" d="M286 185L287 186L286 185z"/>
<path style="fill:#585858; stroke:none;" d="M326 185L327 186L326 185M412 185L413 186L412 185z"/>
<path style="fill:#ffe05e; stroke:none;" d="M451 185L452 186L451 185z"/>
<path style="fill:#585858; stroke:none;" d="M286.333 186.667L286.667 187.333L286.333 186.667z"/>
<path style="fill:#9a9a9a; stroke:none;" d="M451 186L452 187L451 186M59 187L60 188L59 187M136 187L137 188L136 187z"/>
<path style="fill:#585858; stroke:none;" d="M451 187L452 188L451 187M59 188L60 189L59 188M136 188L137 189L136 188z"/>
<path style="fill:#9a9a9a; stroke:none;" d="M327 188L328 189L327 188M413 188L414 189L413 188z"/>
<path style="fill:#ffe05e; stroke:none;" d="M285 189L286 190L285 189z"/>
<path style="fill:#585858; stroke:none;" d="M327.333 189.667L327.667 190.333L327.333 189.667M413.333 189.667L413.667 190.333L413.333 189.667z"/>
<path style="fill:#9a9a9a; stroke:none;" d="M285 190L286 191L285 190M450 190L451 191L450 190M58 191L59 192L58 191M137.333 191.667L137.667 192.333L137.333 191.667z"/>
<path style="fill:#585858; stroke:none;" d="M285 191L286 192L285 191M450.333 191.667L450.667 192.333L450.333 191.667M58 192L58 197L59 197L58 192z"/>
<path style="fill:#9a9a9a; stroke:none;" d="M328.333 192.667L328.667 193.333L328.333 192.667M414.333 192.667L414.667 193.333L414.333 192.667z"/>
<path style="fill:#585858; stroke:none;" d="M137 193L137 197L138 197L137 193z"/>
<path style="fill:#9a9a9a; stroke:none;" d="M284.333 194.667L284.667 195.333L284.333 194.667z"/>
<path style="fill:#585858; stroke:none;" d="M328 194L329 195L328 194M414 194L415 195L414 194z"/>
<path style="fill:#9a9a9a; stroke:none;" d="M449.333 194.667L449.667 195.333L449.333 194.667z"/>
<path style="fill:#585858; stroke:none;" d="M90.6667 196.333L91.3333 196.667L90.6667 196.333z"/>
<path style="fill:#9a9a9a; stroke:none;" d="M92 196L92 197L104 197L92 196z"/>
<path style="fill:#585858; stroke:none;" d="M104.667 196.333L105.333 196.667L104.667 196.333M284 196L285 197L284 196M449 196L450 197L449 196M88 197L89 198L88 197z"/>
<path style="fill:#ffe05e; stroke:none;" d="M89 197L90 198L89 197z"/>
<path style="fill:#9a9a9a; stroke:none;" d="M107 197L108 198L107 197M329.333 197.667L329.667 198.333L329.333 197.667M415 197L416 198L415 197M87 198L88 199L87 198M108 198L109 199L108 198z"/>
<path style="fill:#585858; stroke:none;" d="M415.333 198.667L415.667 199.333L415.333 198.667M86 199L87 200L86 199z"/>
<path style="fill:#9a9a9a; stroke:none;" d="M109 199L110 200L109 199M283 199L284 200L283 199z"/>
<path style="fill:#585858; stroke:none;" d="M329 199L330 200L329 199z"/>
<path style="fill:#9a9a9a; stroke:none;" d="M448 199L449 200L448 199z"/>
<path style="fill:#585858; stroke:none;" d="M283.333 200.667L283.667 201.333L283.333 200.667M448.333 200.667L448.667 201.333L448.333 200.667M85 201L86 202L85 201M110 201L111 202L110 201z"/>
<path style="fill:#ffe05e; stroke:none;" d="M330 201L331 202L330 201z"/>
<path style="fill:#9a9a9a; stroke:none;" d="M416.333 201.667L416.667 202.333L416.333 201.667M85.3333 202.667L85.6667 203.333L85.3333 202.667M110.333 202.667L110.667 203.333L110.333 202.667M330 202L331 203L330 202M282.333 203.667L282.667 204.333L282.333 203.667z"/>
<path style="fill:#585858; stroke:none;" d="M330.333 203.667L330.667 204.333L330.333 203.667M416 203L417 204L416 203z"/>
<path style="fill:#9a9a9a; stroke:none;" d="M447.333 203.667L447.667 204.333L447.333 203.667z"/>
<path style="fill:#ffe05e; stroke:none;" d="M85 204L85 232L86 232L85 204M110 204L110 220L111 220L110 204z"/>
<path style="fill:#585858; stroke:none;" d="M282 205L283 206L282 205M306 205L307 206L306 205M447 205L448 206L447 205z"/>
<path style="fill:#9a9a9a; stroke:none;" d="M306 206L307 207L306 206M331.333 206.667L331.667 207.333L331.333 206.667M417 206L418 207L417 206z"/>
<path style="fill:#ffffff; stroke:none;" d="M306 207C305.069 228.627 299.18 252.974 294 274L319 274L311.081 231L306 207z"/>
<path style="fill:#585858; stroke:none;" d="M417.333 207.667L417.667 208.333L417.333 207.667z"/>
<path style="fill:#9a9a9a; stroke:none;" d="M281.333 208.667L281.667 209.333L281.333 208.667z"/>
<path style="fill:#585858; stroke:none;" d="M307.333 208.667L307.667 209.333L307.333 208.667M331 208L332 209L331 208z"/>
<path style="fill:#9a9a9a; stroke:none;" d="M446 208L447 209L446 208z"/>
<path style="fill:#585858; stroke:none;" d="M305.333 209.667L305.667 210.333L305.333 209.667M446.333 209.667L446.667 210.333L446.333 209.667M281 210L282 211L281 210z"/>
<path style="fill:#9a9a9a; stroke:none;" d="M307.333 210.667L307.667 211.333L307.333 210.667M418.333 210.667L418.667 211.333L418.333 210.667M305.333 211.667L305.667 212.333L305.333 211.667M332 211L333 212L332 211z"/>
<path style="fill:#ffe05e; stroke:none;" d="M280 212L281 213L280 212z"/>
<path style="fill:#585858; stroke:none;" d="M332.333 212.667L332.667 213.333L332.333 212.667M418 212L419 213L418 212z"/>
<path style="fill:#9a9a9a; stroke:none;" d="M445.333 212.667L445.667 213.333L445.333 212.667M280 213L281 214L280 213z"/>
<path style="fill:#585858; stroke:none;" d="M280.333 214.667L280.667 215.333L280.333 214.667M308 214L309 215L308 214M445 214L446 215L445 214M304 215L305 216L304 215z"/>
<path style="fill:#9a9a9a; stroke:none;" d="M308.333 215.667L308.667 216.333L308.333 215.667z"/>
<path style="fill:#ffe05e; stroke:none;" d="M333 215L334 216L333 215z"/>
<path style="fill:#9a9a9a; stroke:none;" d="M419 215L420 216L419 215M304.333 216.667L304.667 217.333L304.333 216.667M333 216L334 217L333 216z"/>
<path style="fill:#585858; stroke:none;" d="M419.333 216.667L419.667 217.333L419.333 216.667z"/>
<path style="fill:#9a9a9a; stroke:none;" d="M279.333 217.667L279.667 218.333L279.333 217.667z"/>
<path style="fill:#585858; stroke:none;" d="M333.333 217.667L333.667 218.333L333.333 217.667z"/>
<path style="fill:#9a9a9a; stroke:none;" d="M444 217L445 218L444 217z"/>
<path style="fill:#585858; stroke:none;" d="M444.333 218.667L444.667 219.333L444.333 218.667M279 219L280 220L279 219M309.333 219.667L309.667 220.333L309.333 219.667z"/>
<path style="fill:#9a9a9a; stroke:none;" d="M420.333 219.667L420.667 220.333L420.333 219.667z"/>
<path style="fill:#585858; stroke:none;" d="M303.333 220.667L303.667 221.333L303.333 220.667z"/>
<path style="fill:#9a9a9a; stroke:none;" d="M334.333 220.667L334.667 221.333L334.333 220.667z"/>
<path style="fill:#585858; stroke:none;" d="M137 221L138 222L137 221z"/>
<path style="fill:#9a9a9a; stroke:none;" d="M309 221L310 222L309 221z"/>
<path style="fill:#585858; stroke:none;" d="M420 221L421 222L420 221z"/>
<path style="fill:#9a9a9a; stroke:none;" d="M443.333 221.667L443.667 222.333L443.333 221.667z"/>
<path style="fill:#ffe05e; stroke:none;" d="M111 222L112 223L111 222z"/>
<path style="fill:#585858; stroke:none;" d="M136 222L137 223L136 222z"/>
<path style="fill:#9a9a9a; stroke:none;" d="M278 222L279 223L278 222M303 222L304 223L303 222z"/>
<path style="fill:#ffe05e; stroke:none;" d="M309 222L310 223L309 222z"/>
<path style="fill:#585858; stroke:none;" d="M334 222L335 223L334 222z"/>
<path style="fill:#ffe05e; stroke:none;" d="M114 223L114 224L135 224L114 223z"/>
<path style="fill:#585858; stroke:none;" d="M278.333 223.667L278.667 224.333L278.333 223.667z"/>
<path style="fill:#ffe05e; stroke:none;" d="M303 223L304 224L303 223M421 223L422 224L421 223z"/>
<path style="fill:#585858; stroke:none;" d="M443 223L444 224L443 223M310.333 224.667L310.667 225.333L310.333 224.667z"/>
<path style="fill:#9a9a9a; stroke:none;" d="M421 224L422 225L421 224z"/>
<path style="fill:#585858; stroke:none;" d="M302.333 225.667L302.667 226.333L302.333 225.667z"/>
<path style="fill:#9a9a9a; stroke:none;" d="M335 225L336 226L335 225z"/>
<path style="fill:#585858; stroke:none;" d="M421.333 225.667L421.667 226.333L421.333 225.667z"/>
<path style="fill:#ffe05e; stroke:none;" d="M277 226L278 227L277 226z"/>
<path style="fill:#9a9a9a; stroke:none;" d="M310.333 226.667L310.667 227.333L310.333 226.667z"/>
<path style="fill:#585858; stroke:none;" d="M335.333 226.667L335.667 227.333L335.333 226.667z"/>
<path style="fill:#9a9a9a; stroke:none;" d="M442 226L443 227L442 226M277 227L278 228L277 227M302.333 227.667L302.667 228.333L302.333 227.667z"/>
<path style="fill:#585858; stroke:none;" d="M442.333 227.667L442.667 228.333L442.333 227.667M277.333 228.667L277.667 229.333L277.333 228.667z"/>
<path style="fill:#9a9a9a; stroke:none;" d="M422.333 228.667L422.667 229.333L422.333 228.667M336.333 229.667L336.667 230.333L336.333 229.667z"/>
<path style="fill:#585858; stroke:none;" d="M311.333 230.667L311.667 231.333L311.333 230.667M422 230L423 231L422 230z"/>
<path style="fill:#9a9a9a; stroke:none;" d="M441.333 230.667L441.667 231.333L441.333 230.667M276.333 231.667L276.667 232.333L276.333 231.667z"/>
<path style="fill:#585858; stroke:none;" d="M301.333 231.667L301.667 232.333L301.333 231.667M336 231L337 232L336 231M86 232L87 233L86 232z"/>
<path style="fill:#9a9a9a; stroke:none;" d="M87 232L88 233L87 232M311 232L312 233L311 232z"/>
<path style="fill:#ffe05e; stroke:none;" d="M423 232L424 233L423 232z"/>
<path style="fill:#585858; stroke:none;" d="M441 232L442 233L441 232M89 233L90 234L89 233z"/>
<path style="fill:#9a9a9a; stroke:none;" d="M90 233L91 234L90 233z"/>
<path style="fill:#585858; stroke:none;" d="M276 233L277 234L276 233z"/>
<path style="fill:#9a9a9a; stroke:none;" d="M301 233L302 234L301 233z"/>
<path style="fill:#ffe05e; stroke:none;" d="M311 233L312 234L311 233z"/>
<path style="fill:#9a9a9a; stroke:none;" d="M423 233L424 234L423 233z"/>
<path style="fill:#585858; stroke:none;" d="M92 234L93 235L92 234z"/>
<path style="fill:#9a9a9a; stroke:none;" d="M93 234L94 235L93 234z"/>
<path style="fill:#ffe05e; stroke:none;" d="M301 234L302 235L301 234z"/>
<path style="fill:#9a9a9a; stroke:none;" d="M337.333 234.667L337.667 235.333L337.333 234.667z"/>
<path style="fill:#585858; stroke:none;" d="M423.333 234.667L423.667 235.333L423.333 234.667M95 235L96 236L95 235z"/>
<path style="fill:#9a9a9a; stroke:none;" d="M96 235L97 236L96 235z"/>
<path style="fill:#585858; stroke:none;" d="M312.333 235.667L312.667 236.333L312.333 235.667z"/>
<path style="fill:#9a9a9a; stroke:none;" d="M440 235L441 236L440 235z"/>
<path style="fill:#585858; stroke:none;" d="M98 236L99 237L98 236z"/>
<path style="fill:#9a9a9a; stroke:none;" d="M99 236L100 237L99 236M185 236L186 237L185 236M210 236L211 237L210 236M275 236L276 237L275 236z"/>
<path style="fill:#585858; stroke:none;" d="M300.333 236.667L300.667 237.333L300.333 236.667M337 236L338 237L337 236M401 236L401 327L402 327L402 264L401 236M403.333 236.667L403.667 237.333L403.333 236.667M440.333 236.667L440.667 237.333L440.333 236.667z"/>
<path style="fill:#9a9a9a; stroke:none;" d="M462 236L462 327L463 327L463 264L462 236z"/>
<path style="fill:#585858; stroke:none;" d="M101 237L102 238L101 237z"/>
<path style="fill:#9a9a9a; stroke:none;" d="M102 237L103 238L102 237z"/>
<path style="fill:#585858; stroke:none;" d="M275.333 237.667L275.667 238.333L275.333 237.667z"/>
<path style="fill:#9a9a9a; stroke:none;" d="M312.333 237.667L312.667 238.333L312.333 237.667M424.333 237.667L424.667 238.333L424.333 237.667z"/>
<path style="fill:#585858; stroke:none;" d="M104 238L105 239L104 238z"/>
<path style="fill:#9a9a9a; stroke:none;" d="M105 238L106 239L105 238M300.333 238.667L300.667 239.333L300.333 238.667z"/>
<path style="fill:#ffe05e; stroke:none;" d="M338 238L339 239L338 238z"/>
<path style="fill:#9a9a9a; stroke:none;" d="M403 238L404 239L403 238z"/>
<path style="fill:#585858; stroke:none;" d="M460 238L461 239L460 238M107 239L108 240L107 239z"/>
<path style="fill:#9a9a9a; stroke:none;" d="M108 239L109 240L108 239M338 239L339 240L338 239z"/>
<path style="fill:#ffe05e; stroke:none;" d="M403 239L404 240L403 239z"/>
<path style="fill:#585858; stroke:none;" d="M424 239L425 240L424 239z"/>
<path style="fill:#9a9a9a; stroke:none;" d="M439.333 239.667L439.667 240.333L439.333 239.667M460.333 239.667L460.667 240.333L460.333 239.667z"/>
<path style="fill:#585858; stroke:none;" d="M110 240L111 241L110 240z"/>
<path style="fill:#9a9a9a; stroke:none;" d="M111 240L112 241L111 240z"/>
<path style="fill:#ffe05e; stroke:none;" d="M274 240L275 241L274 240z"/>
<path style="fill:#585858; stroke:none;" d="M338.333 240.667L338.667 241.333L338.333 240.667M113 241L114 242L113 241z"/>
<path style="fill:#9a9a9a; stroke:none;" d="M114 241L115 242L114 241M274 241L275 242L274 241z"/>
<path style="fill:#585858; stroke:none;" d="M313 241L314 242L313 241M404 241L405 242L404 241z"/>
<path style="fill:#ffe05e; stroke:none;" d="M425 241L426 242L425 241z"/>
<path style="fill:#585858; stroke:none;" d="M439 241L440 242L439 241M116 242L117 243L116 242z"/>
<path style="fill:#9a9a9a; stroke:none;" d="M117 242L118 243L117 242z"/>
<path style="fill:#585858; stroke:none;" d="M274 242L275 243L274 242M299 242L300 243L299 242z"/>
<path style="fill:#9a9a9a; stroke:none;" d="M313.333 242.667L313.667 243.333L313.333 242.667M404.333 242.667L404.667 243.333L404.333 242.667M425 242L426 243L425 242z"/>
<path style="fill:#585858; stroke:none;" d="M459.333 242.667L459.667 243.333L459.333 242.667M119 243L120 244L119 243z"/>
<path style="fill:#9a9a9a; stroke:none;" d="M120 243L121 244L120 243M299.333 243.667L299.667 244.333L299.333 243.667M339.333 243.667L339.667 244.333L339.333 243.667z"/>
<path style="fill:#585858; stroke:none;" d="M425.333 243.667L425.667 244.333L425.333 243.667M122 244L123 245L122 244z"/>
<path style="fill:#9a9a9a; stroke:none;" d="M123 244L124 245L123 244z"/>
<path style="fill:#ffe05e; stroke:none;" d="M313 244L314 245L313 244z"/>
<path style="fill:#9a9a9a; stroke:none;" d="M438 244L439 245L438 244M459 244L460 245L459 244z"/>
<path style="fill:#585858; stroke:none;" d="M125 245L126 246L125 245z"/>
<path style="fill:#9a9a9a; stroke:none;" d="M126 245L127 246L126 245M273.333 245.667L273.667 246.333L273.333 245.667z"/>
<path style="fill:#ffe05e; stroke:none;" d="M299 245L300 246L299 245z"/>
<path style="fill:#585858; stroke:none;" d="M339 245L340 246L339 245M438.333 245.667L438.667 246.333L438.333 245.667M128 246L129 247L128 246z"/>
<path style="fill:#9a9a9a; stroke:none;" d="M129 246L130 247L129 246z"/>
<path style="fill:#585858; stroke:none;" d="M314.333 246.667L314.667 247.333L314.333 246.667M405 246L406 247L405 246z"/>
<path style="fill:#9a9a9a; stroke:none;" d="M426.333 246.667L426.667 247.333L426.333 246.667z"/>
<path style="fill:#585858; stroke:none;" d="M58.3333 247.667L58.6667 248.333L58.3333 247.667M131 247L132 248L131 247z"/>
<path style="fill:#9a9a9a; stroke:none;" d="M132 247L133 248L132 247z"/>
<path style="fill:#585858; stroke:none;" d="M273 247L274 248L273 247M298.333 247.667L298.667 248.333L298.333 247.667z"/>
<path style="fill:#9a9a9a; stroke:none;" d="M405.333 247.667L405.667 248.333L405.333 247.667z"/>
<path style="fill:#585858; stroke:none;" d="M458 247L459 248L458 247z"/>
<path style="fill:#9a9a9a; stroke:none;" d="M134 248L135 249L134 248M314.333 248.667L314.667 249.333L314.333 248.667M340.333 248.667L340.667 249.333L340.333 248.667z"/>
<path style="fill:#585858; stroke:none;" d="M426 248L427 249L426 248z"/>
<path style="fill:#9a9a9a; stroke:none;" d="M437.333 248.667L437.667 249.333L437.333 248.667M458.333 248.667L458.667 249.333L458.333 248.667M58 249L59 250L58 249z"/>
<path style="fill:#585858; stroke:none;" d="M135 249L136 250L135 249z"/>
<path style="fill:#ffe05e; stroke:none;" d="M272 249L273 250L272 249z"/>
<path style="fill:#9a9a9a; stroke:none;" d="M298.333 249.667L298.667 250.333L298.333 249.667z"/>
<path style="fill:#585858; stroke:none;" d="M59 250L60 251L59 250M136 250L137 251L136 250z"/>
<path style="fill:#9a9a9a; stroke:none;" d="M272 250L273 251L272 250z"/>
<path style="fill:#585858; stroke:none;" d="M340 250L341 251L340 250M406.333 250.667L406.667 251.333L406.333 250.667z"/>
<path style="fill:#ffe05e; stroke:none;" d="M427 250L428 251L427 250z"/>
<path style="fill:#585858; stroke:none;" d="M437 250L438 251L437 250M60 251L61 252L60 251z"/>
<path style="fill:#ffe05e; stroke:none;" d="M137 251L138 252L137 251z"/>
<path style="fill:#585858; stroke:none;" d="M272.333 251.667L272.667 252.333L272.333 251.667z"/>
<path style="fill:#9a9a9a; stroke:none;" d="M427 251L428 252L427 251z"/>
<path style="fill:#585858; stroke:none;" d="M457.333 251.667L457.667 252.333L457.333 251.667z"/>
<path style="fill:#9a9a9a; stroke:none;" d="M61 252L62 253L61 252z"/>
<path style="fill:#585858; stroke:none;" d="M137.333 252.667L137.667 253.333L137.333 252.667M315 252L316 253L315 252z"/>
<path style="fill:#ffe05e; stroke:none;" d="M341 252L342 253L341 252z"/>
<path style="fill:#9a9a9a; stroke:none;" d="M406 252L407 253L406 252z"/>
<path style="fill:#585858; stroke:none;" d="M427.333 252.667L427.667 253.333L427.333 252.667z"/>
<path style="fill:#9a9a9a; stroke:none;" d="M63 253L64 254L63 253z"/>
<path style="fill:#585858; stroke:none;" d="M64 253L65 254L64 253M297 253L298 254L297 253z"/>
<path style="fill:#9a9a9a; stroke:none;" d="M315.333 253.667L315.667 254.333L315.333 253.667M341 253L342 254L341 253M436 253L437 254L436 253M457 253L458 254L457 253M66 254L67 255L66 254z"/>
<path style="fill:#585858; stroke:none;" d="M67 254L68 255L67 254z"/>
<path style="fill:#9a9a9a; stroke:none;" d="M271.333 254.667L271.667 255.333L271.333 254.667M297.333 254.667L297.667 255.333L297.333 254.667z"/>
<path style="fill:#585858; stroke:none;" d="M341.333 254.667L341.667 255.333L341.333 254.667M436.333 254.667L436.667 255.333L436.333 254.667z"/>
<path style="fill:#ffe05e; stroke:none;" d="M457 254L458 255L457 254z"/>
<path style="fill:#9a9a9a; stroke:none;" d="M69 255L70 256L69 255z"/>
<path style="fill:#585858; stroke:none;" d="M70 255L71 256L70 255M407 255L408 256L407 255z"/>
<path style="fill:#9a9a9a; stroke:none;" d="M428.333 255.667L428.667 256.333L428.333 255.667M72 256L73 257L72 256z"/>
<path style="fill:#585858; stroke:none;" d="M73 256L74 257L73 256M271 256L272 257L271 256z"/>
<path style="fill:#9a9a9a; stroke:none;" d="M407.333 256.667L407.667 257.333L407.333 256.667z"/>
<path style="fill:#585858; stroke:none;" d="M456 256L457 257L456 256z"/>
<path style="fill:#9a9a9a; stroke:none;" d="M75 257L76 258L75 257z"/>
<path style="fill:#585858; stroke:none;" d="M76 257L77 258L76 257M316.333 257.667L316.667 258.333L316.333 257.667z"/>
<path style="fill:#9a9a9a; stroke:none;" d="M342.333 257.667L342.667 258.333L342.333 257.667z"/>
<path style="fill:#585858; stroke:none;" d="M428 257L429 258L428 257z"/>
<path style="fill:#9a9a9a; stroke:none;" d="M435.333 257.667L435.667 258.333L435.333 257.667M456.333 257.667L456.667 258.333L456.333 257.667M78 258L79 259L78 258z"/>
<path style="fill:#585858; stroke:none;" d="M79 258L80 259L79 258M296.333 258.667L296.667 259.333L296.333 258.667z"/>
<path style="fill:#9a9a9a; stroke:none;" d="M81 259L82 260L81 259z"/>
<path style="fill:#585858; stroke:none;" d="M82 259L83 260L82 259z"/>
<path style="fill:#9a9a9a; stroke:none;" d="M270.333 259.667L270.667 260.333L270.333 259.667M316.333 259.667L316.667 260.333L316.333 259.667z"/>
<path style="fill:#585858; stroke:none;" d="M342 259L343 260L342 259M408.333 259.667L408.667 260.333L408.333 259.667z"/>
<path style="fill:#ffe05e; stroke:none;" d="M429 259L430 260L429 259z"/>
<path style="fill:#585858; stroke:none;" d="M435 259L436 260L435 259z"/>
<path style="fill:#9a9a9a; stroke:none;" d="M84 260L85 261L84 260z"/>
<path style="fill:#585858; stroke:none;" d="M85 260L86 261L85 260z"/>
<path style="fill:#9a9a9a; stroke:none;" d="M296.333 260.667L296.667 261.333L296.333 260.667M429 260L430 261L429 260M87 261L88 262L87 261z"/>
<path style="fill:#585858; stroke:none;" d="M88 261L89 262L88 261M270 261L271 262L270 261z"/>
<path style="fill:#9a9a9a; stroke:none;" d="M408 261L409 262L408 261z"/>
<path style="fill:#585858; stroke:none;" d="M429.333 261.667L429.667 262.333L429.333 261.667z"/>
<path style="fill:#ffe05e; stroke:none;" d="M434 261L435 262L434 261z"/>
<path style="fill:#585858; stroke:none;" d="M455 261L456 262L455 261z"/>
<path style="fill:#9a9a9a; stroke:none;" d="M90 262L91 263L90 262z"/>
<path style="fill:#585858; stroke:none;" d="M91 262L92 263L91 262z"/>
<path style="fill:#9a9a9a; stroke:none;" d="M343 262L344 263L343 262M434 262L435 263L434 262M455 262L456 263L455 262M93 263L94 264L93 263z"/>
<path style="fill:#585858; stroke:none;" d="M94 263L95 264L94 263z"/>
<path style="fill:#9a9a9a; stroke:none;" d="M185 263L186 264L185 263z"/>
<path style="fill:#ffe05e; stroke:none;" d="M186 263L186 264L210 264L210 327C215.206 314.593 211 292.515 211 279C211 275.367 212.6 266.565 209.397 264.028C204.975 260.526 191.51 263 186 263z"/>
<path style="fill:#9a9a9a; stroke:none;" d="M210 263L211 264L210 263z"/>
<path style="fill:#ffe05e; stroke:none;" d="M269 263L270 264L269 263z"/>
<path style="fill:#585858; stroke:none;" d="M317 263L318 264L317 263M343.333 263.667L343.667 264.333L343.333 263.667M434.333 263.667L434.667 264.333L434.333 263.667z"/>
<path style="fill:#ffe05e; stroke:none;" d="M455 263L456 264L455 263z"/>
<path style="fill:#9a9a9a; stroke:none;" d="M96 264L97 265L96 264z"/>
<path style="fill:#585858; stroke:none;" d="M97 264L98 265L97 264z"/>
<path style="fill:#ffe05e; stroke:none;" d="M185 264L185 327L186 327L186 284L185 264z"/>
<path style="fill:#9a9a9a; stroke:none;" d="M269 264L270 265L269 264z"/>
<path style="fill:#585858; stroke:none;" d="M295 264L296 265L295 264z"/>
<path style="fill:#9a9a9a; stroke:none;" d="M317.333 264.667L317.667 265.333L317.333 264.667z"/>
<path style="fill:#585858; stroke:none;" d="M409 264L410 265L409 264z"/>
<path style="fill:#9a9a9a; stroke:none;" d="M430.333 264.667L430.667 265.333L430.333 264.667M99 265L100 266L99 265z"/>
<path style="fill:#585858; stroke:none;" d="M100 265L101 266L100 265M269.333 265.667L269.667 266.333L269.333 265.667z"/>
<path style="fill:#9a9a9a; stroke:none;" d="M295.333 265.667L295.667 266.333L295.333 265.667M409.333 265.667L409.667 266.333L409.333 265.667z"/>
<path style="fill:#585858; stroke:none;" d="M454.333 265.667L454.667 266.333L454.333 265.667z"/>
<path style="fill:#9a9a9a; stroke:none;" d="M102 266L103 267L102 266z"/>
<path style="fill:#585858; stroke:none;" d="M103 266L104 267L103 266z"/>
<path style="fill:#ffe05e; stroke:none;" d="M344 266L345 267L344 266z"/>
<path style="fill:#585858; stroke:none;" d="M430 266L431 267L430 266z"/>
<path style="fill:#9a9a9a; stroke:none;" d="M433.333 266.667L433.667 267.333L433.333 266.667M105 267L106 268L105 267z"/>
<path style="fill:#585858; stroke:none;" d="M106 267L107 268L106 267z"/>
<path style="fill:#9a9a9a; stroke:none;" d="M344 267L345 268L344 267M454 267L455 268L454 267M108 268L109 269L108 268z"/>
<path style="fill:#585858; stroke:none;" d="M109 268L110 269L109 268z"/>
<path style="fill:#9a9a9a; stroke:none;" d="M268.333 268.667L268.667 269.333L268.333 268.667z"/>
<path style="fill:#585858; stroke:none;" d="M318.333 268.667L318.667 269.333L318.333 268.667M344 268L345 269L344 268M410.333 268.667L410.667 269.333L410.333 268.667z"/>
<path style="fill:#ffe05e; stroke:none;" d="M431 268L432 269L431 268z"/>
<path style="fill:#585858; stroke:none;" d="M433 268L434 269L433 268z"/>
<path style="fill:#ffe05e; stroke:none;" d="M110 269L110 296L111 296L110 269z"/>
<path style="fill:#585858; stroke:none;" d="M294.333 269.667L294.667 270.333L294.333 269.667z"/>
<path style="fill:#9a9a9a; stroke:none;" d="M431 269L432 270L431 269z"/>
<path style="fill:#585858; stroke:none;" d="M268 270L269 271L268 270z"/>
<path style="fill:#9a9a9a; stroke:none;" d="M318 270L319 271L318 270M410 270L411 271L410 270z"/>
<path style="fill:#585858; stroke:none;" d="M431 270L432 271L431 270z"/>
<path style="fill:#ffe05e; stroke:none;" d="M432 270L433 271L432 270z"/>
<path style="fill:#585858; stroke:none;" d="M453 270L454 271L453 270z"/>
<path style="fill:#9a9a9a; stroke:none;" d="M294.333 271.667L294.667 272.333L294.333 271.667z"/>
<path style="fill:#ffe05e; stroke:none;" d="M318 271L319 272L318 271z"/>
<path style="fill:#9a9a9a; stroke:none;" d="M345.333 271.667L345.667 272.333L345.333 271.667z"/>
<path style="fill:#ffe05e; stroke:none;" d="M410 271L411 272L410 271z"/>
<path style="fill:#9a9a9a; stroke:none;" d="M432 271L433 272L432 271M453.333 271.667L453.667 272.333L453.333 271.667z"/>
<path style="fill:#585858; stroke:none;" d="M432 272L433 273L432 272z"/>
<path style="fill:#9a9a9a; stroke:none;" d="M267 273L268 274L267 273z"/>
<path style="fill:#585858; stroke:none;" d="M345 273L346 274L345 273M411 273L412 274L411 273M267.333 274.667L267.667 275.333L267.333 274.667z"/>
<path style="fill:#ffe05e; stroke:none;" d="M294 274L294 275L319 275L294 274z"/>
<path style="fill:#585858; stroke:none;" d="M319 274L320 275L319 274z"/>
<path style="fill:#9a9a9a; stroke:none;" d="M411.333 274.667L411.667 275.333L411.333 274.667z"/>
<path style="fill:#585858; stroke:none;" d="M452.333 274.667L452.667 275.333L452.333 274.667z"/>
<path style="fill:#9a9a9a; stroke:none;" d="M346 276L347 277L346 276M452 276L453 277L452 276z"/>
<path style="fill:#585858; stroke:none;" d="M59 277L60 278L59 277M83 277L84 278L83 277z"/>
<path style="fill:#ffe05e; stroke:none;" d="M266 277L267 278L266 277z"/>
<path style="fill:#585858; stroke:none;" d="M346.333 277.667L346.667 278.333L346.333 277.667M58 278L59 279L58 278M84 278L85 279L84 278z"/>
<path style="fill:#9a9a9a; stroke:none;" d="M266 278L267 279L266 278z"/>
<path style="fill:#585858; stroke:none;" d="M412 278L413 279L412 278M266.333 279.667L266.667 280.333L266.333 279.667z"/>
<path style="fill:#9a9a9a; stroke:none;" d="M412 279L413 280L412 279z"/>
<path style="fill:#585858; stroke:none;" d="M451 279L452 280L451 279z"/>
<path style="fill:#ffe05e; stroke:none;" d="M85 280L85 296L86 296L85 280z"/>
<path style="fill:#9a9a9a; stroke:none;" d="M347.333 280.667L347.667 281.333L347.333 280.667z"/>
<path style="fill:#ffe05e; stroke:none;" d="M412 280L413 281L412 280z"/>
<path style="fill:#9a9a9a; stroke:none;" d="M451.333 280.667L451.667 281.333L451.333 280.667M265.333 282.667L265.667 283.333L265.333 282.667z"/>
<path style="fill:#585858; stroke:none;" d="M347 282L348 283L347 282M413.333 282.667L413.667 283.333L413.333 282.667M450.333 283.667L450.667 284.333L450.333 283.667M265 284L266 285L265 284z"/>
<path style="fill:#9a9a9a; stroke:none;" d="M413 284L414 285L413 284M348.333 285.667L348.667 286.333L348.333 285.667M450 285L451 286L450 285z"/>
<path style="fill:#ffe05e; stroke:none;" d="M450 286L451 287L450 286z"/>
<path style="fill:#9a9a9a; stroke:none;" d="M264 287L265 288L264 287z"/>
<path style="fill:#585858; stroke:none;" d="M348 287L349 288L348 287M414 287L415 288L414 287M264.333 288.667L264.667 289.333L264.333 288.667z"/>
<path style="fill:#9a9a9a; stroke:none;" d="M414.333 288.667L414.667 289.333L414.333 288.667z"/>
<path style="fill:#585858; stroke:none;" d="M449 288L450 289L449 288z"/>
<path style="fill:#ffe05e; stroke:none;" d="M349 289L350 290L349 289z"/>
<path style="fill:#9a9a9a; stroke:none;" d="M449.333 289.667L449.667 290.333L449.333 289.667M349 290L350 291L349 290M263.333 291.667L263.667 292.333L263.333 291.667z"/>
<path style="fill:#585858; stroke:none;" d="M349.333 291.667L349.667 292.333L349.333 291.667M415.333 291.667L415.667 292.333L415.333 291.667M263 293L264 294L263 293z"/>
<path style="fill:#9a9a9a; stroke:none;" d="M415 293L416 294L415 293z"/>
<path style="fill:#585858; stroke:none;" d="M448 293L449 294L448 293z"/>
<path style="fill:#9a9a9a; stroke:none;" d="M350.333 294.667L350.667 295.333L350.333 294.667M448 294L449 295L448 294z"/>
<path style="fill:#ffe05e; stroke:none;" d="M448 295L449 296L448 295z"/>
<path style="fill:#9a9a9a; stroke:none;" d="M85.3333 296.667L85.6667 297.333L85.3333 296.667M110.333 296.667L110.667 297.333L110.333 296.667M262.333 296.667L262.667 297.333L262.333 296.667z"/>
<path style="fill:#585858; stroke:none;" d="M350 296L351 297L350 296M416 296L417 297L416 296z"/>
<path style="fill:#9a9a9a; stroke:none;" d="M416.333 297.667L416.667 298.333L416.333 297.667z"/>
<path style="fill:#585858; stroke:none;" d="M447.333 297.667L447.667 298.333L447.333 297.667M85 298L86 299L85 298M110 298L111 299L110 298M262 298L263 299L262 298M288 298L289 299L288 298z"/>
<path style="fill:#9a9a9a; stroke:none;" d="M324.333 298.667L324.667 299.333L324.333 298.667M288.333 299.667L288.667 300.333L288.333 299.667M351 299L352 300L351 299M447 299L448 300L447 299M86 300L87 301L86 300M109 300L110 301L109 300z"/>
<path style="fill:#ffe05e; stroke:none;" d="M261 300L262 301L261 300z"/>
<path style="fill:#585858; stroke:none;" d="M351.333 300.667L351.667 301.333L351.333 300.667M417.333 300.667L417.667 301.333L417.333 300.667z"/>
<path style="fill:#9a9a9a; stroke:none;" d="M87 301L88 302L87 301M108 301L109 302L108 301M261 301L262 302L261 301M88 302L89 303L88 302M107 302L108 303L107 302z"/>
<path style="fill:#585858; stroke:none;" d="M261.333 302.667L261.667 303.333L261.333 302.667M325.333 302.667L325.667 303.333L325.333 302.667z"/>
<path style="fill:#9a9a9a; stroke:none;" d="M417 302L418 303L417 302z"/>
<path style="fill:#585858; stroke:none;" d="M446 302L447 303L446 302M58 303L58 308L59 308L58 303M90.6667 303.333L91.3333 303.667L90.6667 303.333z"/>
<path style="fill:#9a9a9a; stroke:none;" d="M92 303L92 304L104 304L92 303z"/>
<path style="fill:#585858; stroke:none;" d="M104.667 303.333L105.333 303.667L104.667 303.333M137 303L137 307L138 307L137 303M287.333 303.667L287.667 304.333L287.333 303.667z"/>
<path style="fill:#ffe05e; stroke:none;" d="M352 303L353 304L352 303M417 303L418 304L417 303z"/>
<path style="fill:#9a9a9a; stroke:none;" d="M446.333 303.667L446.667 304.333L446.333 303.667M325 304L326 305L325 304M352 304L353 305L352 304M260.333 305.667L260.667 306.333L260.333 305.667M287.333 305.667L287.667 306.333L287.333 305.667z"/>
<path style="fill:#ffe05e; stroke:none;" d="M325 305L326 306L325 305z"/>
<path style="fill:#585858; stroke:none;" d="M352.333 305.667L352.667 306.333L352.333 305.667M418 305L419 306L418 305z"/>
<path style="fill:#9a9a9a; stroke:none;" d="M418.333 306.667L418.667 307.333L418.333 306.667z"/>
<path style="fill:#585858; stroke:none;" d="M445.333 306.667L445.667 307.333L445.333 306.667z"/>
<path style="fill:#9a9a9a; stroke:none;" d="M137.333 307.667L137.667 308.333L137.333 307.667z"/>
<path style="fill:#585858; stroke:none;" d="M260 307L261 308L260 307M326.333 307.667L326.667 308.333L326.333 307.667z"/>
<path style="fill:#9a9a9a; stroke:none;" d="M58 308L59 309L58 308z"/>
<path style="fill:#585858; stroke:none;" d="M286.333 308.667L286.667 309.333L286.333 308.667z"/>
<path style="fill:#9a9a9a; stroke:none;" d="M353.333 308.667L353.667 309.333L353.333 308.667M445 308L446 309L445 308M326 309L327 310L326 309M259.333 310.667L259.667 311.333L259.333 310.667M286.333 310.667L286.667 311.333L286.333 310.667z"/>
<path style="fill:#ffe05e; stroke:none;" d="M326 310L327 311L326 310z"/>
<path style="fill:#585858; stroke:none;" d="M353 310L354 311L353 310M419 310L420 311L419 310M59 311L60 312L59 311M136 311L137 312L136 311z"/>
<path style="fill:#9a9a9a; stroke:none;" d="M419 311L420 312L419 311z"/>
<path style="fill:#585858; stroke:none;" d="M444 311L445 312L444 311z"/>
<path style="fill:#9a9a9a; stroke:none;" d="M59 312L60 313L59 312M136 312L137 313L136 312z"/>
<path style="fill:#585858; stroke:none;" d="M259 312L260 313L259 312M327.333 312.667L327.667 313.333L327.333 312.667z"/>
<path style="fill:#ffe05e; stroke:none;" d="M419 312L420 313L419 312z"/>
<path style="fill:#9a9a9a; stroke:none;" d="M444.333 312.667L444.667 313.333L444.333 312.667M354 313L355 314L354 313z"/>
<path style="fill:#585858; stroke:none;" d="M60 314L61 315L60 314M135 314L136 315L135 314z"/>
<path style="fill:#ffe05e; stroke:none;" d="M258 314L259 315L258 314z"/>
<path style="fill:#585858; stroke:none;" d="M285.333 314.667L285.667 315.333L285.333 314.667z"/>
<path style="fill:#9a9a9a; stroke:none;" d="M327.333 314.667L327.667 315.333L327.333 314.667z"/>
<path style="fill:#585858; stroke:none;" d="M354.333 314.667L354.667 315.333L354.333 314.667M420.333 314.667L420.667 315.333L420.333 314.667z"/>
<path style="fill:#9a9a9a; stroke:none;" d="M60 315L61 316L60 315M135 315L136 316L135 315M258 315L259 316L258 315z"/>
<path style="fill:#585858; stroke:none;" d="M443.333 315.667L443.667 316.333L443.333 315.667M61 316L62 317L61 316M134 316L135 317L134 316M258.333 316.667L258.667 317.333L258.333 316.667z"/>
<path style="fill:#9a9a9a; stroke:none;" d="M285 316L286 317L285 316M420 316L421 317L420 316M61 317L62 318L61 317M134 317L135 318L134 317z"/>
<path style="fill:#ffe05e; stroke:none;" d="M285 317L286 318L285 317z"/>
<path style="fill:#9a9a9a; stroke:none;" d="M355.333 317.667L355.667 318.333L355.333 317.667M443 317L444 318L443 317z"/>
<path style="fill:#585858; stroke:none;" d="M62 318L63 319L62 318M133 318L134 319L133 318M328 318L329 319L328 318z"/>
<path style="fill:#ffe05e; stroke:none;" d="M443 318L444 319L443 318z"/>
<path style="fill:#9a9a9a; stroke:none;" d="M257.333 319.667L257.667 320.333L257.333 319.667z"/>
<path style="fill:#585858; stroke:none;" d="M284.333 319.667L284.667 320.333L284.333 319.667z"/>
<path style="fill:#9a9a9a; stroke:none;" d="M328.333 319.667L328.667 320.333L328.333 319.667z"/>
<path style="fill:#585858; stroke:none;" d="M355 319L356 320L355 319M421 319L422 320L421 319z"/>
<path style="fill:#9a9a9a; stroke:none;" d="M63 320L64 321L63 320M132 320L133 321L132 320M421.333 320.667L421.667 321.333L421.333 320.667z"/>
<path style="fill:#585858; stroke:none;" d="M442 320L443 321L442 320z"/>
<path style="fill:#9a9a9a; stroke:none;" d="M64 321L65 322L64 321M131 321L132 322L131 321z"/>
<path style="fill:#585858; stroke:none;" d="M257 321L258 322L257 321z"/>
<path style="fill:#9a9a9a; stroke:none;" d="M284.333 321.667L284.667 322.333L284.333 321.667M442.333 321.667L442.667 322.333L442.333 321.667z"/>
<path style="fill:#585858; stroke:none;" d="M65 322L66 323L65 322M130 322L131 323L130 322z"/>
<path style="fill:#9a9a9a; stroke:none;" d="M356.333 322.667L356.667 323.333L356.333 322.667M66 323L67 324L66 323M129 323L130 324L129 323z"/>
<path style="fill:#585858; stroke:none;" d="M329 323L330 324L329 323M422.333 323.667L422.667 324.333L422.333 323.667z"/>
<path style="fill:#9a9a9a; stroke:none;" d="M67 324L68 325L67 324M128 324L129 325L128 324M256 324L257 325L256 324M329.333 324.667L329.667 325.333L329.333 324.667z"/>
<path style="fill:#585858; stroke:none;" d="M356 324L357 325L356 324M441.333 324.667L441.667 325.333L441.333 324.667M69 325L70 326L69 325M126 325L127 326L126 325z"/>
<path style="fill:#ffe05e; stroke:none;" d="M127 325L128 326L127 325z"/>
<path style="fill:#585858; stroke:none;" d="M256.333 325.667L256.667 326.333L256.333 325.667M283 325L284 326L283 325z"/>
<path style="fill:#9a9a9a; stroke:none;" d="M422 325L423 326L422 325M70 326L71 327L70 326z"/>
<path style="fill:#585858; stroke:none;" d="M71 326L72 327L71 326M124 326L125 327L124 326z"/>
<path style="fill:#9a9a9a; stroke:none;" d="M125 326L126 327L125 326M283.333 326.667L283.667 327.333L283.333 326.667M441 326L442 327L441 326z"/>
<path style="fill:#585858; stroke:none;" d="M37 327L38 328L37 327z"/>
<path style="fill:#9a9a9a; stroke:none;" d="M72 327L73 328L72 327z"/>
<path style="fill:#585858; stroke:none;" d="M73 327L74 328L73 327M122 327L123 328L122 327z"/>
<path style="fill:#9a9a9a; stroke:none;" d="M123 327L124 328L123 327M357 327L358 328L357 327M375 327L376 328L375 327M401 327L402 328L401 327z"/>
<path style="fill:#585858; stroke:none;" d="M423 327L424 328L423 327M11 328L12 329L11 328z"/>
<path style="fill:#9a9a9a; stroke:none;" d="M37 328L38 329L37 328M75 328L76 329L75 328z"/>
<path style="fill:#585858; stroke:none;" d="M76 328L77 329L76 328M119 328L120 329L119 328z"/>
<path style="fill:#9a9a9a; stroke:none;" d="M120 328L121 329L120 328z"/>
<path style="fill:#ffe05e; stroke:none;" d="M121 328L122 329L121 328z"/>
<path style="fill:#585858; stroke:none;" d="M158 328L159 329L158 328M184 328L185 329L184 328M211 328L212 329L211 328M237 328L238 329L237 328M256 328L258 330L256 328M282 328L283 329L282 328z"/>
<path style="fill:#9a9a9a; stroke:none;" d="M330 328L331 329L330 328z"/>
<path style="fill:#ffe05e; stroke:none;" d="M423 328L424 329L423 328z"/>
<path style="fill:#9a9a9a; stroke:none;" d="M440 328L441 329L440 328z"/>
<path style="fill:#585858; stroke:none;" d="M463 328L464 329L463 328z"/>
<path style="fill:#9a9a9a; stroke:none;" d="M488 328L489 329L488 328z"/>
<path style="fill:#585858; stroke:none;" d="M12 329L13 330L12 329z"/>
<path style="fill:#9a9a9a; stroke:none;" d="M36 329L37 330L36 329M79 329L80 330L79 329z"/>
<path style="fill:#585858; stroke:none;" d="M80 329L80 330L85 330L80 329M111 329L111 330L116 330L111 329z"/>
<path style="fill:#9a9a9a; stroke:none;" d="M116 329L117 330L116 329z"/>
<path style="fill:#585858; stroke:none;" d="M159 329L160 330L159 329M183 329L184 330L183 329M212 329L213 330L212 329M236 329L237 330L236 329z"/>
<path style="fill:#ffe05e; stroke:none;" d="M256 329L257 330L256 329z"/>
<path style="fill:#585858; stroke:none;" d="M281 329L282 330L281 329z"/>
<path style="fill:#9a9a9a; stroke:none;" d="M331 329L332 330L331 329z"/>
<path style="fill:#585858; stroke:none;" d="M355 329L356 330L355 329z"/>
<path style="fill:#9a9a9a; stroke:none;" d="M356 329L357 330L356 329z"/>
<path style="fill:#585858; stroke:none;" d="M377 329L378 330L377 329M399 329L400 330L399 329z"/>
<path style="fill:#ffe05e; stroke:none;" d="M424 329L425 330L424 329z"/>
<path style="fill:#585858; stroke:none;" d="M425 329L426 330L425 329M438 329L439 330L438 329z"/>
<path style="fill:#9a9a9a; stroke:none;" d="M439 329L440 330L439 329M464 329L465 330L464 329z"/>
<path style="fill:#585858; stroke:none;" d="M465 329L466 330L465 329M486 329L487 330L486 329z"/>
<path style="fill:#9a9a9a; stroke:none;" d="M487 329L488 330L487 329z"/>
<path style="fill:#ffe05e; stroke:none;" d="M206 370C212.15 372.581 219.548 370.081 226 370.004C242.054 369.813 258 369.74 274 369.039C325.965 366.764 378.084 366.08 430 366C446.744 365.974 465.411 365.318 482 367.576C485.694 368.079 497.704 371.443 497.704 364.91C497.704 357.758 485.587 359.051 481 358.996C463.597 358.788 446.356 357.972 429 358C377.02 358.084 324.943 361.354 273 364.91C250.76 366.433 227.922 364.778 206 370z"/>
</svg>
